#format: frame checksums
#version: 1
#hash: MD5
#tb 0: 1/30
#stream#, dts,        pts, duration,     size, hash
0,          0,          0,        1,   115200, 3441ec1a9b9d325c9aeda44e3b68377d
0,          1,          1,        1,   115200, bff86a84fd673394f45c09d19a1ee0ac
0,          2,          2,        1,   115200, 8cd920f0de408e8cd883f9241680ff80
0,          3,          3,        1,   115200, d1b27cbb40859bbbb6da40dce6ddbf1b
0,          4,          4,        1,   115200, ca102ed86e45fe452f55a2cf0253de21
0,          5,          5,        1,   115200, ac7630be64017becd6e958df360263b5
0,          6,          6,        1,   115200, a044041ede746687d33ba6342d8d3edb
0,          7,          7,        1,   115200, 75d7c0eec357afd0c2d54e769f551b20
0,          8,          8,        1,   115200, eebd916e4fba53a66fc8e6ab98091a0f
0,          9,          9,        1,   115200, c0044160a944dcac81efe9f63def4bc2
0,         10,         10,        1,   115200, 9ba8b2ccbea045b39bd150ea383abc00
0,         11,         11,        1,   115200, 8d7654804fc62f7d52d5bf3d47f536e9
0,         12,         12,        1,   115200, 9fd6cd81fbe6cfc43e03cdf166c7ea93
0,         13,         13,        1,   115200, a1a494064dba27238005227c0808c5f6
0,         14,         14,        1,   115200, b8dca72164ea72b3f257c97c3ad87416
0,         15,         15,        1,   115200, 90ae005c0f3ddb4318318805b8fc29cf
0,         16,         16,        1,   115200, 8183e7b60f18887a9530a7905db4b417
0,         17,         17,        1,   115200, 1650ad1fff9076141f59b660c562f0f2
0,         18,         18,        1,   115200, e9ee675cafd270c366ac9d3ced5af879
0,         19,         19,        1,   115200, 2257172d6e8628b4dd4d9bf97e9ee2c3
0,         20,         20,        1,   115200, 577438f88feca7a876381a6fcf094684
0,         21,         21,        1,   115200, 4b37e90eb35cba66d31616169020c039
0,         22,         22,        1,   115200, 2c631ab87b8d3b7df13f888e3d6f1690
0,         23,         23,        1,   115200, e0d46e04d6a57b20c2b056cd0a0ca1ec
0,         24,         24,        1,   115200, 65bd3e207b8ed966b71f40a04f1900b8
0,         25,         25,        1,   115200, fd842606a20fb297463b7b3dd6efa2c2
0,         26,         26,        1,   115200, 778cd96eabe785320254db7692583f47
0,         27,         27,        1,   115200, 094272ad385a64fbc70a62f958e27eff
0,         28,         28,        1,   115200, cf5f7b3b94a00938b633ea1d9aa8e8dc
0,         29,         29,        1,   115200, 032e2f3649484ca17c739cf89052de77
0,         30,         30,        1,   115200, 9afe92189c21675745609e3b21a75941
0,         31,         31,        1,   115200, a5e087c496798bfbc64d6c26eee0b3af
0,         32,         32,        1,   115200, efb2716347ba2e01f7dc103d2a6cebb4
0,         33,         33,        1,   115200, c83541678dcca8937e372102bc4d1f68
0,         34,         34,        1,   115200, 3401ed97a9296610c8473dcf03e13f20
0,         35,         35,        1,   115200, 35af1327fafe026b6539951a9baee282
0,         36,         36,        1,   115200, f320e2d64192849c08c4c5e6d79e4ecf
0,         37,         37,        1,   115200, 5a661af83f451d8651cf081399d451b2
0,         38,         38,        1,   115200, 625d271b60d91229699f1de35d232b13
0,         39,         39,        1,   115200, 8e504154fa8eba5f9807bf40c647eea8
0,         40,         40,        1,   115200, 094ecb39a65c71e85d15a587472bb336
0,         41,         41,        1,   115200, 4d08bfe5771f00e13646be49e3471c4c
0,         42,         42,        1,   115200, 20841206e07721fb631088d492622543
0,         43,         43,        1,   115200, edf969142e1b053f951c1a5756f2b5d9
0,         44,         44,        1,   115200, 4959a13f20311d9b435e501fd753c94b
0,         45,         45,        1,   115200, a7f34e6c985d630af07a9f6dc47ea50e
0,         46,         46,        1,   115200, 96f6667d849f3abe4e85e3ce368b76ee
0,         47,         47,        1,   115200, a47d443c8aa5f2d2e3b44deab3f4f8e7
0,         48,         48,        1,   115200, 4ebda78d96facc4472ecdb4f667be0c6
0,         49,         49,        1,   115200, 6ba744c47edab85c6e77584e35e1b735
0,         50,         50,        1,   115200, 4d2e6882f15356171e4383111ec70e6e
0,         51,         51,        1,   115200, 85077fc81dff947b1251bfbd981aaf52
0,         52,         52,        1,   115200, f03e8879a5218387c502eaab31682df9
0,         53,         53,        1,   115200, 90f6128298cb52f769d697f9f842df27
0,         54,         54,        1,   115200, 700a705680c1a940141bc03ae5de391b
0,         55,         55,        1,   115200, 049b3df3ed9673ab8e0f0d0d896f65c2
0,         56,         56,        1,   115200, ca8c3e5509211dc92078371f06dc8635
